<svg width="2267" height="500" viewBox="0 0 2267 500" fill="none" xmlns="http://www.w3.org/2000/svg">
<rect width="500" height="500" rx="100" fill="#8A38F5"/>
<path d="M291 123H442.905C449.794 123 454.619 129.802 452.344 136.304L406.844 266.304C405.44 270.314 401.655 273 397.405 273H299.5" stroke="white" stroke-width="20" stroke-linecap="round"/>
<path d="M208 123H56.0948C49.2063 123 44.3806 129.802 46.6562 136.304L92.1562 266.304C93.56 270.314 97.3454 273 101.595 273H199.5" stroke="white" stroke-width="20" stroke-linecap="round"/>
<path d="M224.214 51H270.163C275.536 51 279.949 55.2045 280.173 60.5727C282.698 121.221 297.363 449.5 319 449.5C342.839 449.5 445.5 449.5 445.5 449.5" stroke="white" stroke-width="20" stroke-linecap="round"/>
<path d="M224.214 51H270.163C275.536 51 279.949 55.2045 280.173 60.5727C282.698 121.221 297.363 449.5 319 449.5C342.839 449.5 445.5 449.5 445.5 449.5" stroke="white" stroke-width="20" stroke-linecap="round"/>
<path d="M271.286 51H225.337C219.964 51 215.551 55.2045 215.327 60.5727C212.802 121.221 198.137 449.5 176.5 449.5C152.661 449.5 50 449.5 50 449.5" stroke="white" stroke-width="20" stroke-linecap="round"/>
<path d="M202 237H298" stroke="white" stroke-width="20"/>
<path d="M773.727 219.636H739.727C738.758 214.061 736.97 209.121 734.364 204.818C731.758 200.455 728.515 196.758 724.636 193.727C720.758 190.697 716.333 188.424 711.364 186.909C706.455 185.333 701.152 184.545 695.455 184.545C685.333 184.545 676.364 187.091 668.545 192.182C660.727 197.212 654.606 204.606 650.182 214.364C645.758 224.061 643.545 235.909 643.545 249.909C643.545 264.152 645.758 276.152 650.182 285.909C654.667 295.606 660.788 302.939 668.545 307.909C676.364 312.818 685.303 315.273 695.364 315.273C700.939 315.273 706.152 314.545 711 313.091C715.909 311.576 720.303 309.364 724.182 306.455C728.121 303.545 731.424 299.97 734.091 295.727C736.818 291.485 738.697 286.636 739.727 281.182L773.727 281.364C772.455 290.212 769.697 298.515 765.455 306.273C761.273 314.03 755.788 320.879 749 326.818C742.212 332.697 734.273 337.303 725.182 340.636C716.091 343.909 706 345.545 694.909 345.545C678.545 345.545 663.939 341.758 651.091 334.182C638.242 326.606 628.121 315.667 620.727 301.364C613.333 287.061 609.636 269.909 609.636 249.909C609.636 229.848 613.364 212.697 620.818 198.455C628.273 184.152 638.424 173.212 651.273 165.636C664.121 158.061 678.667 154.273 694.909 154.273C705.273 154.273 714.909 155.727 723.818 158.636C732.727 161.545 740.667 165.818 747.636 171.455C754.606 177.03 760.333 183.879 764.818 192C769.364 200.061 772.333 209.273 773.727 219.636ZM836.068 261.182V343H803.159V156.818H835.341V227.091H836.977C840.25 219.212 845.311 213 852.159 208.455C859.068 203.848 867.856 201.545 878.523 201.545C888.22 201.545 896.674 203.576 903.886 207.636C911.098 211.697 916.674 217.636 920.614 225.455C924.614 233.273 926.614 242.818 926.614 254.091V343H893.705V259.182C893.705 249.788 891.28 242.485 886.432 237.273C881.644 232 874.917 229.364 866.25 229.364C860.432 229.364 855.22 230.636 850.614 233.182C846.068 235.667 842.492 239.273 839.886 244C837.341 248.727 836.068 254.455 836.068 261.182ZM1049.16 284.273V203.364H1082.07V343H1050.16V318.182H1048.7C1045.55 326 1040.37 332.394 1033.16 337.364C1026.01 342.333 1017.19 344.818 1006.7 344.818C997.553 344.818 989.462 342.788 982.432 338.727C975.462 334.606 970.008 328.636 966.068 320.818C962.129 312.939 960.159 303.424 960.159 292.273V203.364H993.068V287.182C993.068 296.03 995.492 303.061 1000.34 308.273C1005.19 313.485 1011.55 316.091 1019.43 316.091C1024.28 316.091 1028.98 314.909 1033.52 312.545C1038.07 310.182 1041.8 306.667 1044.7 302C1047.67 297.273 1049.16 291.364 1049.16 284.273ZM1148.82 156.818V343H1115.91V156.818H1148.82ZM1222.84 345.818C1213.99 345.818 1206.02 344.242 1198.93 341.091C1191.9 337.879 1186.33 333.152 1182.2 326.909C1178.14 320.667 1176.11 312.97 1176.11 303.818C1176.11 295.939 1177.57 289.424 1180.48 284.273C1183.39 279.121 1187.36 275 1192.39 271.909C1197.42 268.818 1203.08 266.485 1209.39 264.909C1215.75 263.273 1222.33 262.091 1229.11 261.364C1237.3 260.515 1243.93 259.758 1249.02 259.091C1254.11 258.364 1257.81 257.273 1260.11 255.818C1262.48 254.303 1263.66 251.97 1263.66 248.818V248.273C1263.66 241.424 1261.63 236.121 1257.57 232.364C1253.51 228.606 1247.66 226.727 1240.02 226.727C1231.96 226.727 1225.57 228.485 1220.84 232C1216.17 235.515 1213.02 239.667 1211.39 244.455L1180.66 240.091C1183.08 231.606 1187.08 224.515 1192.66 218.818C1198.23 213.061 1205.05 208.758 1213.11 205.909C1221.17 203 1230.08 201.545 1239.84 201.545C1246.57 201.545 1253.27 202.333 1259.93 203.909C1266.6 205.485 1272.69 208.091 1278.2 211.727C1283.72 215.303 1288.14 220.182 1291.48 226.364C1294.87 232.545 1296.57 240.273 1296.57 249.545V343H1264.93V323.818H1263.84C1261.84 327.697 1259.02 331.333 1255.39 334.727C1251.81 338.061 1247.3 340.758 1241.84 342.818C1236.45 344.818 1230.11 345.818 1222.84 345.818ZM1231.39 321.636C1237.99 321.636 1243.72 320.333 1248.57 317.727C1253.42 315.061 1257.14 311.545 1259.75 307.182C1262.42 302.818 1263.75 298.061 1263.75 292.909V276.455C1262.72 277.303 1260.96 278.091 1258.48 278.818C1256.05 279.545 1253.33 280.182 1250.3 280.727C1247.27 281.273 1244.27 281.758 1241.3 282.182C1238.33 282.606 1235.75 282.97 1233.57 283.273C1228.66 283.939 1224.27 285.03 1220.39 286.545C1216.51 288.061 1213.45 290.182 1211.2 292.909C1208.96 295.576 1207.84 299.03 1207.84 303.273C1207.84 309.333 1210.05 313.909 1214.48 317C1218.9 320.091 1224.54 321.636 1231.39 321.636ZM1381.48 345.455C1370.51 345.455 1360.69 342.636 1352.02 337C1343.36 331.364 1336.51 323.182 1331.48 312.455C1326.45 301.727 1323.93 288.697 1323.93 273.364C1323.93 257.848 1326.48 244.758 1331.57 234.091C1336.72 223.364 1343.66 215.273 1352.39 209.818C1361.11 204.303 1370.84 201.545 1381.57 201.545C1389.75 201.545 1396.48 202.939 1401.75 205.727C1407.02 208.455 1411.2 211.758 1414.3 215.636C1417.39 219.455 1419.78 223.061 1421.48 226.455H1422.84V156.818H1455.84V343H1423.48V321H1421.48C1419.78 324.394 1417.33 328 1414.11 331.818C1410.9 335.576 1406.66 338.788 1401.39 341.455C1396.11 344.121 1389.48 345.455 1381.48 345.455ZM1390.66 318.455C1397.63 318.455 1403.57 316.576 1408.48 312.818C1413.39 309 1417.11 303.697 1419.66 296.909C1422.2 290.121 1423.48 282.212 1423.48 273.182C1423.48 264.152 1422.2 256.303 1419.66 249.636C1417.17 242.97 1413.48 237.788 1408.57 234.091C1403.72 230.394 1397.75 228.545 1390.66 228.545C1383.33 228.545 1377.2 230.455 1372.3 234.273C1367.39 238.091 1363.69 243.364 1361.2 250.091C1358.72 256.818 1357.48 264.515 1357.48 273.182C1357.48 281.909 1358.72 289.697 1361.2 296.545C1363.75 303.333 1367.48 308.697 1372.39 312.636C1377.36 316.515 1383.45 318.455 1390.66 318.455ZM1531.09 345.818C1522.24 345.818 1514.27 344.242 1507.18 341.091C1500.15 337.879 1494.58 333.152 1490.45 326.909C1486.39 320.667 1484.36 312.97 1484.36 303.818C1484.36 295.939 1485.82 289.424 1488.73 284.273C1491.64 279.121 1495.61 275 1500.64 271.909C1505.67 268.818 1511.33 266.485 1517.64 264.909C1524 263.273 1530.58 262.091 1537.36 261.364C1545.55 260.515 1552.18 259.758 1557.27 259.091C1562.36 258.364 1566.06 257.273 1568.36 255.818C1570.73 254.303 1571.91 251.97 1571.91 248.818V248.273C1571.91 241.424 1569.88 236.121 1565.82 232.364C1561.76 228.606 1555.91 226.727 1548.27 226.727C1540.21 226.727 1533.82 228.485 1529.09 232C1524.42 235.515 1521.27 239.667 1519.64 244.455L1488.91 240.091C1491.33 231.606 1495.33 224.515 1500.91 218.818C1506.48 213.061 1513.3 208.758 1521.36 205.909C1529.42 203 1538.33 201.545 1548.09 201.545C1554.82 201.545 1561.52 202.333 1568.18 203.909C1574.85 205.485 1580.94 208.091 1586.45 211.727C1591.97 215.303 1596.39 220.182 1599.73 226.364C1603.12 232.545 1604.82 240.273 1604.82 249.545V343H1573.18V323.818H1572.09C1570.09 327.697 1567.27 331.333 1563.64 334.727C1560.06 338.061 1555.55 340.758 1550.09 342.818C1544.7 344.818 1538.36 345.818 1531.09 345.818ZM1539.64 321.636C1546.24 321.636 1551.97 320.333 1556.82 317.727C1561.67 315.061 1565.39 311.545 1568 307.182C1570.67 302.818 1572 298.061 1572 292.909V276.455C1570.97 277.303 1569.21 278.091 1566.73 278.818C1564.3 279.545 1561.58 280.182 1558.55 280.727C1555.52 281.273 1552.52 281.758 1549.55 282.182C1546.58 282.606 1544 282.97 1541.82 283.273C1536.91 283.939 1532.52 285.03 1528.64 286.545C1524.76 288.061 1521.7 290.182 1519.45 292.909C1517.21 295.576 1516.09 299.03 1516.09 303.273C1516.09 309.333 1518.3 313.909 1522.73 317C1527.15 320.091 1532.79 321.636 1539.64 321.636ZM1702.86 343V156.818H1772.68C1786.98 156.818 1798.98 159.485 1808.68 164.818C1818.44 170.152 1825.8 177.485 1830.77 186.818C1835.8 196.091 1838.32 206.636 1838.32 218.455C1838.32 230.394 1835.8 241 1830.77 250.273C1825.74 259.545 1818.32 266.848 1808.5 272.182C1798.68 277.455 1786.59 280.091 1772.23 280.091H1725.95V252.364H1767.68C1776.05 252.364 1782.89 250.909 1788.23 248C1793.56 245.091 1797.5 241.091 1800.05 236C1802.65 230.909 1803.95 225.061 1803.95 218.455C1803.95 211.848 1802.65 206.03 1800.05 201C1797.5 195.97 1793.53 192.061 1788.14 189.273C1782.8 186.424 1775.92 185 1767.5 185H1736.59V343H1702.86ZM2033.98 249.909C2033.98 269.97 2030.22 287.152 2022.7 301.455C2015.25 315.697 2005.07 326.606 1992.16 334.182C1979.31 341.758 1964.73 345.545 1948.43 345.545C1932.13 345.545 1917.52 341.758 1904.61 334.182C1891.77 326.545 1881.58 315.606 1874.07 301.364C1866.61 287.061 1862.89 269.909 1862.89 249.909C1862.89 229.848 1866.61 212.697 1874.07 198.455C1881.58 184.152 1891.77 173.212 1904.61 165.636C1917.52 158.061 1932.13 154.273 1948.43 154.273C1964.73 154.273 1979.31 158.061 1992.16 165.636C2005.07 173.212 2015.25 184.152 2022.7 198.455C2030.22 212.697 2033.98 229.848 2033.98 249.909ZM2000.07 249.909C2000.07 235.788 1997.86 223.879 1993.43 214.182C1989.07 204.424 1983.01 197.061 1975.25 192.091C1967.49 187.061 1958.55 184.545 1948.43 184.545C1938.31 184.545 1929.37 187.061 1921.61 192.091C1913.86 197.061 1907.77 204.424 1903.34 214.182C1898.98 223.879 1896.8 235.788 1896.8 249.909C1896.8 264.03 1898.98 275.97 1903.34 285.727C1907.77 295.424 1913.86 302.788 1921.61 307.818C1929.37 312.788 1938.31 315.273 1948.43 315.273C1958.55 315.273 1967.49 312.788 1975.25 307.818C1983.01 302.788 1989.07 295.424 1993.43 285.727C1997.86 275.97 2000.07 264.03 2000.07 249.909ZM2167.05 208C2166.2 200.061 2162.62 193.879 2156.32 189.455C2150.08 185.03 2141.95 182.818 2131.95 182.818C2124.92 182.818 2118.89 183.879 2113.86 186C2108.83 188.121 2104.98 191 2102.32 194.636C2099.65 198.273 2098.29 202.424 2098.23 207.091C2098.23 210.97 2099.11 214.333 2100.86 217.182C2102.68 220.03 2105.14 222.455 2108.23 224.455C2111.32 226.394 2114.74 228.03 2118.5 229.364C2122.26 230.697 2126.05 231.818 2129.86 232.727L2147.32 237.091C2154.35 238.727 2161.11 240.939 2167.59 243.727C2174.14 246.515 2179.98 250.03 2185.14 254.273C2190.35 258.515 2194.47 263.636 2197.5 269.636C2200.53 275.636 2202.05 282.667 2202.05 290.727C2202.05 301.636 2199.26 311.242 2193.68 319.545C2188.11 327.788 2180.05 334.242 2169.5 338.909C2159.02 343.515 2146.32 345.818 2131.41 345.818C2116.92 345.818 2104.35 343.576 2093.68 339.091C2083.08 334.606 2074.77 328.061 2068.77 319.455C2062.83 310.848 2059.62 300.364 2059.14 288H2092.32C2092.8 294.485 2094.8 299.879 2098.32 304.182C2101.83 308.485 2106.41 311.697 2112.05 313.818C2117.74 315.939 2124.11 317 2131.14 317C2138.47 317 2144.89 315.909 2150.41 313.727C2155.98 311.485 2160.35 308.394 2163.5 304.455C2166.65 300.455 2168.26 295.788 2168.32 290.455C2168.26 285.606 2166.83 281.606 2164.05 278.455C2161.26 275.242 2157.35 272.576 2152.32 270.455C2147.35 268.273 2141.53 266.333 2134.86 264.636L2113.68 259.182C2098.35 255.242 2086.23 249.273 2077.32 241.273C2068.47 233.212 2064.05 222.515 2064.05 209.182C2064.05 198.212 2067.02 188.606 2072.95 180.364C2078.95 172.121 2087.11 165.727 2097.41 161.182C2107.71 156.576 2119.38 154.273 2132.41 154.273C2145.62 154.273 2157.2 156.576 2167.14 161.182C2177.14 165.727 2184.98 172.061 2190.68 180.182C2196.38 188.242 2199.32 197.515 2199.5 208H2167.05Z" fill="#111315"/>
</svg>
